<svg width="4" height="13" viewBox="0 0 4 13" fill="none" xmlns="http://www.w3.org/2000/svg">
<path d="M2.41397 10.9354L2.26113 11.0882V1.78133L2.41397 1.93414C2.61769 2.13789 2.94806 2.13793 3.15181 1.93414C3.35556 1.73043 3.35559 1.40005 3.15181 1.19631L2.10832 0.152812C1.9046 -0.0509372 1.57423 -0.0509372 1.37048 0.152812L0.327018 1.19627C0.123269 1.39999 0.123238 1.73036 0.327018 1.93411C0.530735 2.13786 0.861108 2.13786 1.06486 1.93411L1.21767 1.7813V11.0882L1.06486 10.9353C0.86114 10.7316 0.530766 10.7316 0.327018 10.9353C0.123269 11.1391 0.123238 11.4694 0.327018 11.6732L1.37048 12.7166C1.5742 12.9204 1.90457 12.9204 2.10832 12.7166L3.15178 11.6732C3.35553 11.4695 3.35556 11.1391 3.15178 10.9353C2.9481 10.7317 2.61772 10.7317 2.41397 10.9354Z" fill="#4479BC"/>
</svg>
