<svg width="16" height="14" viewBox="0 0 16 14" fill="none" xmlns="http://www.w3.org/2000/svg">
<path d="M15.375 0.84375H11.6875C11.3423 0.84375 11.0625 1.12356 11.0625 1.46875V4.53125H8.00003C7.65488 4.53125 7.37503 4.81106 7.37503 5.15625V8.21875H4.31253C3.96734 8.21875 3.68753 8.49856 3.68753 8.84375V11.9062H0.625C0.279813 11.9062 0 12.1861 0 12.5312C0 12.8764 0.279813 13.1562 0.625 13.1562H4.31253C4.47828 13.1562 4.63728 13.0904 4.75447 12.9732C4.87169 12.856 4.93753 12.697 4.93753 12.5312L4.9375 9.46875H8.00003C8.16578 9.46875 8.32478 9.40291 8.44197 9.28569C8.55919 9.1685 8.62503 9.0095 8.62503 8.84375L8.625 5.78125H11.6875C11.8533 5.78125 12.0122 5.71541 12.1294 5.59819C12.2467 5.481 12.3125 5.322 12.3125 5.15625L12.3125 2.09375H15.375C15.7202 2.09375 16 1.81394 16 1.46875C16 1.12356 15.7202 0.84375 15.375 0.84375Z" fill="#4479BC"/>
</svg>
